<svg xmlns="http://www.w3.org/2000/svg" version="1.1" xmlns:xlink="http://www.w3.org/1999/xlink" xmlns:svgjs="http://svgjs.com/svgjs" width="1440" height="560" preserveAspectRatio="none" viewBox="0 0 1440 560"><g mask="url(&quot;#SvgjsMask3424&quot;)" fill="none"><rect width="1440" height="560" x="0" y="0" fill="url(#SvgjsLinearGradient3425)"></rect><g mask="url(&quot;#SvgjsMask3427&quot;)"><path d="M256.5 283.5L283.5 310.5L310.5 310.5L337.5 283.5L364.5 283.5M229.5 283.5L256.5 310.5M-13.5 283.5L13.5 283.5L40.5 283.5L67.5 283.5L94.5 283.5L121.5 283.5L148.5 283.5L175.5 283.5L202.5 283.5L229.5 283.5L256.5 283.5L283.5 283.5L310.5 283.5" stroke="url(#SvgjsLinearGradient3426)" stroke-width="4.5"></path><path d="M303.75 283.5 a6.75 6.75 0 1 0 13.5 0 a6.75 6.75 0 1 0 -13.5 0zM357.75 283.5 a6.75 6.75 0 1 0 13.5 0 a6.75 6.75 0 1 0 -13.5 0zM249.75 310.5 a6.75 6.75 0 1 0 13.5 0 a6.75 6.75 0 1 0 -13.5 0z" fill="url(#SvgjsLinearGradient3426)"></path><path d="M-13.5 256.5L13.5 256.5L40.5 256.5L67.5 256.5L94.5 256.5L121.5 256.5L148.5 256.5L175.5 256.5L202.5 256.5L229.5 256.5L256.5 256.5" stroke="url(#SvgjsLinearGradient3426)" stroke-width="4.5"></path><path d="M249.75 256.5 a6.75 6.75 0 1 0 13.5 0 a6.75 6.75 0 1 0 -13.5 0z" fill="url(#SvgjsLinearGradient3426)"></path><path d="M202.5 337.5L229.5 310.5M391.5 364.5L418.5 337.5L445.5 337.5M148.5 310.5L175.5 310.5L202.5 310.5M337.5 337.5L364.5 337.5L391.5 337.5L418.5 310.5M-13.5 310.5L13.5 310.5L40.5 310.5L67.5 310.5L94.5 310.5L121.5 310.5L148.5 310.5L175.5 337.5L202.5 337.5L229.5 337.5L256.5 337.5L283.5 337.5L310.5 337.5L337.5 337.5L364.5 364.5L391.5 364.5L418.5 364.5L445.5 364.5L472.5 364.5" stroke="url(#SvgjsLinearGradient3426)" stroke-width="4.5"></path><path d="M465.75 364.5 a6.75 6.75 0 1 0 13.5 0 a6.75 6.75 0 1 0 -13.5 0zM222.75 310.5 a6.75 6.75 0 1 0 13.5 0 a6.75 6.75 0 1 0 -13.5 0zM438.75 337.5 a6.75 6.75 0 1 0 13.5 0 a6.75 6.75 0 1 0 -13.5 0zM195.75 310.5 a6.75 6.75 0 1 0 13.5 0 a6.75 6.75 0 1 0 -13.5 0zM411.75 310.5 a6.75 6.75 0 1 0 13.5 0 a6.75 6.75 0 1 0 -13.5 0z" fill="url(#SvgjsLinearGradient3426)"></path><path d="M526.5 229.5L553.5 256.5L580.5 283.5L607.5 310.5L634.5 310.5L661.5 310.5M499.5 229.5L526.5 202.5L553.5 202.5M229.5 229.5L256.5 202.5L283.5 202.5L310.5 202.5L337.5 202.5L364.5 202.5M94.5 229.5L121.5 202.5L148.5 202.5M337.5 229.5L364.5 256.5L391.5 256.5L418.5 256.5L445.5 256.5L472.5 256.5M-13.5 229.5L13.5 229.5L40.5 229.5L67.5 229.5L94.5 229.5L121.5 229.5L148.5 229.5L175.5 229.5L202.5 229.5L229.5 229.5L256.5 229.5L283.5 229.5L310.5 229.5L337.5 229.5L364.5 229.5L391.5 229.5L418.5 229.5L445.5 229.5L472.5 229.5L499.5 229.5L526.5 229.5L553.5 229.5L580.5 256.5" stroke="url(#SvgjsLinearGradient3426)" stroke-width="4.5"></path><path d="M573.75 256.5 a6.75 6.75 0 1 0 13.5 0 a6.75 6.75 0 1 0 -13.5 0zM654.75 310.5 a6.75 6.75 0 1 0 13.5 0 a6.75 6.75 0 1 0 -13.5 0zM546.75 202.5 a6.75 6.75 0 1 0 13.5 0 a6.75 6.75 0 1 0 -13.5 0zM357.75 202.5 a6.75 6.75 0 1 0 13.5 0 a6.75 6.75 0 1 0 -13.5 0zM141.75 202.5 a6.75 6.75 0 1 0 13.5 0 a6.75 6.75 0 1 0 -13.5 0zM465.75 256.5 a6.75 6.75 0 1 0 13.5 0 a6.75 6.75 0 1 0 -13.5 0z" fill="url(#SvgjsLinearGradient3426)"></path><path d="M121.5 364.5L148.5 337.5M877.5 445.5L904.5 418.5L931.5 418.5L958.5 418.5L985.5 418.5L1012.5 418.5L1039.5 418.5M769.5 445.5L796.5 418.5L823.5 418.5L850.5 418.5L877.5 418.5L904.5 391.5M607.5 391.5L634.5 364.5L661.5 337.5L688.5 337.5L715.5 337.5L742.5 337.5L769.5 337.5L796.5 337.5M715.5 445.5L742.5 418.5L769.5 418.5M499.5 391.5L526.5 364.5L553.5 364.5M580.5 391.5L607.5 364.5L634.5 337.5M94.5 364.5L121.5 337.5M688.5 418.5L715.5 418.5L742.5 391.5L769.5 391.5L796.5 391.5L823.5 391.5L850.5 391.5L877.5 391.5L904.5 364.5L931.5 364.5L958.5 364.5L985.5 364.5L1012.5 364.5M-13.5 337.5L13.5 337.5L40.5 337.5L67.5 337.5L94.5 364.5L121.5 364.5L148.5 364.5L175.5 364.5L202.5 364.5L229.5 364.5L256.5 364.5L283.5 364.5L310.5 364.5L337.5 364.5L364.5 391.5L391.5 391.5L418.5 391.5L445.5 391.5L472.5 391.5L499.5 391.5L526.5 391.5L553.5 391.5L580.5 391.5L607.5 391.5L634.5 391.5L661.5 391.5L688.5 418.5L715.5 445.5L742.5 445.5L769.5 445.5L796.5 445.5L823.5 445.5L850.5 445.5L877.5 445.5L904.5 445.5L931.5 445.5L958.5 445.5L985.5 445.5" stroke="url(#SvgjsLinearGradient3426)" stroke-width="4.5"></path><path d="M978.75 445.5 a6.75 6.75 0 1 0 13.5 0 a6.75 6.75 0 1 0 -13.5 0zM141.75 337.5 a6.75 6.75 0 1 0 13.5 0 a6.75 6.75 0 1 0 -13.5 0zM1032.75 418.5 a6.75 6.75 0 1 0 13.5 0 a6.75 6.75 0 1 0 -13.5 0zM897.75 391.5 a6.75 6.75 0 1 0 13.5 0 a6.75 6.75 0 1 0 -13.5 0zM789.75 337.5 a6.75 6.75 0 1 0 13.5 0 a6.75 6.75 0 1 0 -13.5 0zM762.75 418.5 a6.75 6.75 0 1 0 13.5 0 a6.75 6.75 0 1 0 -13.5 0zM546.75 364.5 a6.75 6.75 0 1 0 13.5 0 a6.75 6.75 0 1 0 -13.5 0zM627.75 337.5 a6.75 6.75 0 1 0 13.5 0 a6.75 6.75 0 1 0 -13.5 0zM114.75 337.5 a6.75 6.75 0 1 0 13.5 0 a6.75 6.75 0 1 0 -13.5 0zM1005.75 364.5 a6.75 6.75 0 1 0 13.5 0 a6.75 6.75 0 1 0 -13.5 0z" fill="url(#SvgjsLinearGradient3426)"></path><path d="M175.5 175.5L202.5 202.5L229.5 202.5M67.5 175.5L94.5 202.5M-13.5 202.5L13.5 202.5L40.5 202.5L67.5 175.5L94.5 175.5L121.5 175.5L148.5 175.5L175.5 175.5L202.5 175.5" stroke="url(#SvgjsLinearGradient3426)" stroke-width="4.5"></path><path d="M195.75 175.5 a6.75 6.75 0 1 0 13.5 0 a6.75 6.75 0 1 0 -13.5 0zM222.75 202.5 a6.75 6.75 0 1 0 13.5 0 a6.75 6.75 0 1 0 -13.5 0zM87.75 202.5 a6.75 6.75 0 1 0 13.5 0 a6.75 6.75 0 1 0 -13.5 0z" fill="url(#SvgjsLinearGradient3426)"></path><path d="M1039.5 472.5L1066.5 499.5M310.5 391.5L337.5 418.5M-13.5 364.5L13.5 364.5L40.5 364.5L67.5 364.5L94.5 391.5L121.5 391.5L148.5 391.5L175.5 391.5L202.5 391.5L229.5 391.5L256.5 391.5L283.5 391.5L310.5 391.5L337.5 391.5L364.5 418.5L391.5 418.5L418.5 418.5L445.5 418.5L472.5 418.5L499.5 418.5L526.5 418.5L553.5 418.5L580.5 418.5L607.5 418.5L634.5 418.5L661.5 418.5L688.5 445.5L715.5 472.5L742.5 472.5L769.5 472.5L796.5 472.5L823.5 472.5L850.5 472.5L877.5 472.5L904.5 472.5L931.5 472.5L958.5 472.5L985.5 472.5L1012.5 472.5L1039.5 472.5L1066.5 472.5" stroke="url(#SvgjsLinearGradient3426)" stroke-width="4.5"></path><path d="M1059.75 472.5 a6.75 6.75 0 1 0 13.5 0 a6.75 6.75 0 1 0 -13.5 0zM1059.75 499.5 a6.75 6.75 0 1 0 13.5 0 a6.75 6.75 0 1 0 -13.5 0zM330.75 418.5 a6.75 6.75 0 1 0 13.5 0 a6.75 6.75 0 1 0 -13.5 0z" fill="url(#SvgjsLinearGradient3426)"></path><path d="M-13.5 175.5L13.5 175.5L40.5 175.5L67.5 148.5L94.5 148.5L121.5 148.5L148.5 148.5L175.5 148.5" stroke="url(#SvgjsLinearGradient3426)" stroke-width="4.5"></path><path d="M168.75 148.5 a6.75 6.75 0 1 0 13.5 0 a6.75 6.75 0 1 0 -13.5 0z" fill="url(#SvgjsLinearGradient3426)"></path><path d="M256.5 418.5L283.5 418.5M229.5 418.5L256.5 445.5L283.5 472.5L310.5 472.5L337.5 472.5L364.5 472.5L391.5 472.5L418.5 472.5L445.5 472.5M634.5 445.5L661.5 472.5L688.5 499.5M148.5 418.5L175.5 445.5L202.5 445.5L229.5 445.5L256.5 472.5L283.5 499.5L310.5 499.5L337.5 499.5L364.5 499.5M607.5 445.5L634.5 472.5L661.5 499.5M13.5 391.5L40.5 418.5L67.5 418.5L94.5 445.5L121.5 445.5L148.5 445.5L175.5 472.5L202.5 472.5L229.5 472.5L256.5 499.5M499.5 445.5L526.5 472.5L553.5 472.5L580.5 472.5L607.5 472.5L634.5 499.5M472.5 445.5L499.5 472.5L526.5 499.5L553.5 499.5L580.5 499.5M-13.5 391.5L13.5 391.5L40.5 391.5L67.5 391.5L94.5 418.5L121.5 418.5L148.5 418.5L175.5 418.5L202.5 418.5L229.5 418.5L256.5 418.5L283.5 445.5L310.5 445.5L337.5 445.5L364.5 445.5L391.5 445.5L418.5 445.5L445.5 445.5L472.5 445.5L499.5 445.5L526.5 445.5L553.5 445.5L580.5 445.5L607.5 445.5L634.5 445.5L661.5 445.5L688.5 472.5L715.5 499.5L742.5 499.5L769.5 499.5L796.5 499.5L823.5 499.5L850.5 499.5L877.5 499.5L904.5 499.5L931.5 499.5L958.5 499.5L985.5 499.5L1012.5 499.5" stroke="url(#SvgjsLinearGradient3426)" stroke-width="4.5"></path><path d="M1005.75 499.5 a6.75 6.75 0 1 0 13.5 0 a6.75 6.75 0 1 0 -13.5 0zM276.75 418.5 a6.75 6.75 0 1 0 13.5 0 a6.75 6.75 0 1 0 -13.5 0zM438.75 472.5 a6.75 6.75 0 1 0 13.5 0 a6.75 6.75 0 1 0 -13.5 0zM681.75 499.5 a6.75 6.75 0 1 0 13.5 0 a6.75 6.75 0 1 0 -13.5 0zM357.75 499.5 a6.75 6.75 0 1 0 13.5 0 a6.75 6.75 0 1 0 -13.5 0zM654.75 499.5 a6.75 6.75 0 1 0 13.5 0 a6.75 6.75 0 1 0 -13.5 0zM249.75 499.5 a6.75 6.75 0 1 0 13.5 0 a6.75 6.75 0 1 0 -13.5 0zM627.75 499.5 a6.75 6.75 0 1 0 13.5 0 a6.75 6.75 0 1 0 -13.5 0zM573.75 499.5 a6.75 6.75 0 1 0 13.5 0 a6.75 6.75 0 1 0 -13.5 0z" fill="url(#SvgjsLinearGradient3426)"></path><path d="M391.5 121.5L418.5 94.5L445.5 94.5M229.5 121.5L256.5 148.5L283.5 148.5M499.5 121.5L526.5 148.5L553.5 175.5L580.5 175.5L607.5 175.5M742.5 175.5L769.5 148.5L796.5 148.5L823.5 148.5L850.5 148.5L877.5 148.5L904.5 148.5M256.5 121.5L283.5 94.5L310.5 94.5M121.5 121.5L148.5 94.5L175.5 94.5L202.5 94.5M418.5 121.5L445.5 148.5L472.5 148.5L499.5 148.5M-13.5 148.5L13.5 148.5L40.5 148.5L67.5 121.5L94.5 121.5L121.5 121.5L148.5 121.5L175.5 121.5L202.5 121.5L229.5 121.5L256.5 121.5L283.5 121.5L310.5 121.5L337.5 121.5L364.5 121.5L391.5 121.5L418.5 121.5L445.5 121.5L472.5 121.5L499.5 121.5L526.5 121.5L553.5 148.5L580.5 148.5L607.5 148.5L634.5 148.5L661.5 148.5L688.5 175.5L715.5 175.5L742.5 175.5L769.5 175.5" stroke="url(#SvgjsLinearGradient3426)" stroke-width="4.5"></path><path d="M762.75 175.5 a6.75 6.75 0 1 0 13.5 0 a6.75 6.75 0 1 0 -13.5 0zM438.75 94.5 a6.75 6.75 0 1 0 13.5 0 a6.75 6.75 0 1 0 -13.5 0zM276.75 148.5 a6.75 6.75 0 1 0 13.5 0 a6.75 6.75 0 1 0 -13.5 0zM600.75 175.5 a6.75 6.75 0 1 0 13.5 0 a6.75 6.75 0 1 0 -13.5 0zM897.75 148.5 a6.75 6.75 0 1 0 13.5 0 a6.75 6.75 0 1 0 -13.5 0zM303.75 94.5 a6.75 6.75 0 1 0 13.5 0 a6.75 6.75 0 1 0 -13.5 0zM195.75 94.5 a6.75 6.75 0 1 0 13.5 0 a6.75 6.75 0 1 0 -13.5 0zM492.75 148.5 a6.75 6.75 0 1 0 13.5 0 a6.75 6.75 0 1 0 -13.5 0z" fill="url(#SvgjsLinearGradient3426)"></path></g></g><defs><mask id="SvgjsMask3424"><rect width="1440" height="560" fill="#ffffff"></rect></mask><linearGradient x1="15.28%" y1="-39.29%" x2="84.72%" y2="139.29%" gradientUnits="userSpaceOnUse" id="SvgjsLinearGradient3425"><stop stop-color="#0e2a47" offset="0"></stop><stop stop-color="#00459e" offset="1"></stop></linearGradient><linearGradient x1="1123.2" y1="280" x2="0" y2="280" gradientUnits="userSpaceOnUse" id="SvgjsLinearGradient3426"><stop stop-color="#3a7cc3" offset="0"></stop><stop stop-color="rgba(171, 221, 17, 0.75)" offset="1"></stop></linearGradient><mask id="SvgjsMask3427"><rect width="1440" height="560" fill="white"></rect><path d="M307.12 283.5 a3.38 3.38 0 1 0 6.76 0 a3.38 3.38 0 1 0 -6.76 0zM361.12 283.5 a3.38 3.38 0 1 0 6.76 0 a3.38 3.38 0 1 0 -6.76 0zM253.12 310.5 a3.38 3.38 0 1 0 6.76 0 a3.38 3.38 0 1 0 -6.76 0z" fill="black"></path><path d="M253.12 256.5 a3.38 3.38 0 1 0 6.76 0 a3.38 3.38 0 1 0 -6.76 0z" fill="black"></path><path d="M469.12 364.5 a3.38 3.38 0 1 0 6.76 0 a3.38 3.38 0 1 0 -6.76 0zM226.12 310.5 a3.38 3.38 0 1 0 6.76 0 a3.38 3.38 0 1 0 -6.76 0zM442.12 337.5 a3.38 3.38 0 1 0 6.76 0 a3.38 3.38 0 1 0 -6.76 0zM199.12 310.5 a3.38 3.38 0 1 0 6.76 0 a3.38 3.38 0 1 0 -6.76 0zM415.12 310.5 a3.38 3.38 0 1 0 6.76 0 a3.38 3.38 0 1 0 -6.76 0z" fill="black"></path><path d="M577.12 256.5 a3.38 3.38 0 1 0 6.76 0 a3.38 3.38 0 1 0 -6.76 0zM658.12 310.5 a3.38 3.38 0 1 0 6.76 0 a3.38 3.38 0 1 0 -6.76 0zM550.12 202.5 a3.38 3.38 0 1 0 6.76 0 a3.38 3.38 0 1 0 -6.76 0zM361.12 202.5 a3.38 3.38 0 1 0 6.76 0 a3.38 3.38 0 1 0 -6.76 0zM145.12 202.5 a3.38 3.38 0 1 0 6.76 0 a3.38 3.38 0 1 0 -6.76 0zM469.12 256.5 a3.38 3.38 0 1 0 6.76 0 a3.38 3.38 0 1 0 -6.76 0z" fill="black"></path><path d="M982.12 445.5 a3.38 3.38 0 1 0 6.76 0 a3.38 3.38 0 1 0 -6.76 0zM145.12 337.5 a3.38 3.38 0 1 0 6.76 0 a3.38 3.38 0 1 0 -6.76 0zM1036.12 418.5 a3.38 3.38 0 1 0 6.76 0 a3.38 3.38 0 1 0 -6.76 0zM901.12 391.5 a3.38 3.38 0 1 0 6.76 0 a3.38 3.38 0 1 0 -6.76 0zM793.12 337.5 a3.38 3.38 0 1 0 6.76 0 a3.38 3.38 0 1 0 -6.76 0zM766.12 418.5 a3.38 3.38 0 1 0 6.76 0 a3.38 3.38 0 1 0 -6.76 0zM550.12 364.5 a3.38 3.38 0 1 0 6.76 0 a3.38 3.38 0 1 0 -6.76 0zM631.12 337.5 a3.38 3.38 0 1 0 6.76 0 a3.38 3.38 0 1 0 -6.76 0zM118.12 337.5 a3.38 3.38 0 1 0 6.76 0 a3.38 3.38 0 1 0 -6.76 0zM1009.12 364.5 a3.38 3.38 0 1 0 6.76 0 a3.38 3.38 0 1 0 -6.76 0z" fill="black"></path><path d="M199.12 175.5 a3.38 3.38 0 1 0 6.76 0 a3.38 3.38 0 1 0 -6.76 0zM226.12 202.5 a3.38 3.38 0 1 0 6.76 0 a3.38 3.38 0 1 0 -6.76 0zM91.12 202.5 a3.38 3.38 0 1 0 6.76 0 a3.38 3.38 0 1 0 -6.76 0z" fill="black"></path><path d="M1063.12 472.5 a3.38 3.38 0 1 0 6.76 0 a3.38 3.38 0 1 0 -6.76 0zM1063.12 499.5 a3.38 3.38 0 1 0 6.76 0 a3.38 3.38 0 1 0 -6.76 0zM334.12 418.5 a3.38 3.38 0 1 0 6.76 0 a3.38 3.38 0 1 0 -6.76 0z" fill="black"></path><path d="M172.12 148.5 a3.38 3.38 0 1 0 6.76 0 a3.38 3.38 0 1 0 -6.76 0z" fill="black"></path><path d="M1009.12 499.5 a3.38 3.38 0 1 0 6.76 0 a3.38 3.38 0 1 0 -6.76 0zM280.12 418.5 a3.38 3.38 0 1 0 6.76 0 a3.38 3.38 0 1 0 -6.76 0zM442.12 472.5 a3.38 3.38 0 1 0 6.76 0 a3.38 3.38 0 1 0 -6.76 0zM685.12 499.5 a3.38 3.38 0 1 0 6.76 0 a3.38 3.38 0 1 0 -6.76 0zM361.12 499.5 a3.38 3.38 0 1 0 6.76 0 a3.38 3.38 0 1 0 -6.76 0zM658.12 499.5 a3.38 3.38 0 1 0 6.76 0 a3.38 3.38 0 1 0 -6.76 0zM253.12 499.5 a3.38 3.38 0 1 0 6.76 0 a3.38 3.38 0 1 0 -6.76 0zM631.12 499.5 a3.38 3.38 0 1 0 6.76 0 a3.38 3.38 0 1 0 -6.76 0zM577.12 499.5 a3.38 3.38 0 1 0 6.76 0 a3.38 3.38 0 1 0 -6.76 0z" fill="black"></path><path d="M766.12 175.5 a3.38 3.38 0 1 0 6.76 0 a3.38 3.38 0 1 0 -6.76 0zM442.12 94.5 a3.38 3.38 0 1 0 6.76 0 a3.38 3.38 0 1 0 -6.76 0zM280.12 148.5 a3.38 3.38 0 1 0 6.76 0 a3.38 3.38 0 1 0 -6.76 0zM604.12 175.5 a3.38 3.38 0 1 0 6.76 0 a3.38 3.38 0 1 0 -6.76 0zM901.12 148.5 a3.38 3.38 0 1 0 6.76 0 a3.38 3.38 0 1 0 -6.76 0zM307.12 94.5 a3.38 3.38 0 1 0 6.76 0 a3.38 3.38 0 1 0 -6.76 0zM199.12 94.5 a3.38 3.38 0 1 0 6.76 0 a3.38 3.38 0 1 0 -6.76 0zM496.12 148.5 a3.38 3.38 0 1 0 6.76 0 a3.38 3.38 0 1 0 -6.76 0z" fill="black"></path></mask></defs></svg>