<svg xmlns="http://www.w3.org/2000/svg" version="1.1" xmlns:xlink="http://www.w3.org/1999/xlink" xmlns:svgjs="http://svgjs.com/svgjs" width="1440" height="560" preserveAspectRatio="none" viewBox="0 0 1440 560"><g mask="url(&quot;#SvgjsMask1027&quot;)" fill="none"><rect width="1440" height="560" x="0" y="0" fill="#0e2a47"></rect><path d="M1320.13 542.47L1327.59 542.47L1327.59 549.93L1320.13 549.93z" stroke="#e73635"></path><path d="M388.76 128.69L425.49 128.69L425.49 180.2L388.76 180.2z" fill="#e73635"></path><path d="M393.38 390.7L421.16 390.7L421.16 418.48L393.38 418.48z" stroke="#037b0b"></path><path d="M377.81 8.53 a52.06 52.06 0 1 0 104.12 0 a52.06 52.06 0 1 0 -104.12 0z" fill="#e73635"></path><path d="M211.71 214.4L233.77 214.4L233.77 236.46L211.71 236.46z" fill="#037b0b"></path><path d="M341.2 125.84a28.86 28.86 0 1 0-49.38-29.89z" stroke="#037b0b"></path><path d="M256.63 61.33 a14.39 14.39 0 1 0 28.78 0 a14.39 14.39 0 1 0 -28.78 0z" stroke="#e73635"></path><path d="M334.5 96.64L347.7 96.64L347.7 105.25L334.5 105.25z" fill="#e73635"></path><path d="M1122.87 402.93 a41.56 41.56 0 1 0 83.12 0 a41.56 41.56 0 1 0 -83.12 0z" fill="rgba(8, 28, 248, 1)"></path><path d="M691.79 452.91L727.42 452.91L727.42 463.29L691.79 463.29z" stroke="#037b0b"></path><path d="M1277.63 430.28L1281.41 430.28L1281.41 464.49L1277.63 464.49z" stroke="#e73635"></path><path d="M290.11 403.32L341.82 403.32L341.82 410.26L290.11 410.26z" fill="rgba(8, 28, 248, 1)"></path><path d="M154.43 438.25L172.28 438.25L172.28 456.1L154.43 456.1z" stroke="rgba(8, 28, 248, 1)"></path><path d="M150.28 507.96a40.67 40.67 0 1 0 33.52 74.11z" stroke="rgba(8, 28, 248, 1)"></path><path d="M1424.57 442.9L1459 442.9L1459 477.33L1424.57 477.33z" stroke="rgba(8, 28, 248, 1)"></path><path d="M946.8 304.92a3.17 3.17 0 1 0 5.28 3.52z" fill="#037b0b"></path><path d="M1305.55 529.34 a36.7 36.7 0 1 0 73.4 0 a36.7 36.7 0 1 0 -73.4 0z" fill="#d3b714"></path><path d="M1156.35 130.14 a25.36 25.36 0 1 0 50.72 0 a25.36 25.36 0 1 0 -50.72 0z" stroke="#037b0b"></path><path d="M1132.29 548.21L1145.09 548.21L1145.09 574.12L1132.29 574.12z" fill="#e73635"></path><path d="M265.75 195.99a9.58 9.58 0 1 0-11.12-15.6z" fill="#d3b714"></path><path d="M1384.91 40.47a22.75 22.75 0 1 0 13.37 43.49z" stroke="rgba(8, 28, 248, 1)"></path><path d="M1358.02 97.68a29.72 29.72 0 1 0-58.35 11.29z" fill="rgba(8, 28, 248, 1)"></path><path d="M342.99 362.03a22.85 22.85 0 1 0-36.84 27.05z" stroke="#e73635"></path><path d="M627.87 143.08L660.34 143.08L660.34 189.8L627.87 189.8z" fill="rgba(8, 28, 248, 1)"></path><path d="M1035.2 40.19a14.12 14.12 0 1 0-5.73-27.65z" fill="#e73635"></path><path d="M563 248.3 a3.09 3.09 0 1 0 6.18 0 a3.09 3.09 0 1 0 -6.18 0z" stroke="#d3b714"></path><path d="M789 255.23 a20.71 20.71 0 1 0 41.42 0 a20.71 20.71 0 1 0 -41.42 0z" stroke="#d3b714"></path><path d="M1058.51 420.87L1086.03 420.87L1086.03 448.39L1058.51 448.39z" fill="#e73635"></path><path d="M781.06 355.34L813.77 355.34L813.77 410.98L781.06 410.98z" stroke="rgba(8, 28, 248, 1)"></path><path d="M1298.69 165.69L1324.26 165.69L1324.26 191.26L1298.69 191.26z" fill="rgba(8, 28, 248, 1)"></path><path d="M261.31 464.3 a52.39 52.39 0 1 0 104.78 0 a52.39 52.39 0 1 0 -104.78 0z" fill="#e73635"></path><path d="M402.16 347.89L446.74 347.89L446.74 385.42L402.16 385.42z" stroke="#e73635"></path><path d="M733.74 311.09L743.72 311.09L743.72 360.93L733.74 360.93z" fill="rgba(8, 28, 248, 1)"></path></g><defs><mask id="SvgjsMask1027"><rect width="1440" height="560" fill="#ffffff"></rect></mask></defs></svg>