<svg xmlns="http://www.w3.org/2000/svg" version="1.1" xmlns:xlink="http://www.w3.org/1999/xlink" xmlns:svgjs="http://svgjs.com/svgjs" width="1440" height="560" preserveAspectRatio="none" viewBox="0 0 1440 560"><g mask="url(&quot;#SvgjsMask1049&quot;)" fill="none"><rect width="1440" height="560" x="0" y="0" fill="url(#SvgjsLinearGradient1050)"></rect><path d="M-98.63 402.59L-98.63 402.59" stroke="#132e65" stroke-width="1.5"></path><path d="M-98.63 402.59L-59.7 531.1" stroke="#132e65" stroke-width="1.5"></path><path d="M-59.7 531.1L-59.7 531.1" stroke="#132e65" stroke-width="1.5"></path><path d="M-59.7 531.1L54.08 510.13" stroke="#132e65" stroke-width="1.5"></path><path d="M-59.7 531.1L-62.15 653.11" stroke="#132e65" stroke-width="1.5"></path><path d="M-59.7 531.1L37.93 667.57" stroke="#132e65" stroke-width="1.5"></path><path d="M-59.7 531.1L103.73 411.77" stroke="#132e65" stroke-width="1.5"></path><path d="M-59.7 531.1L211.31 401.62" stroke="#132e65" stroke-width="1.5"></path><path d="M-62.15 653.11L-62.15 653.11" stroke="#132e65" stroke-width="1.5"></path><path d="M-62.15 653.11L37.93 667.57" stroke="#132e65" stroke-width="1.5"></path><path d="M-62.15 653.11L54.08 510.13" stroke="#132e65" stroke-width="1.5"></path><path d="M-62.15 653.11L-98.63 402.59" stroke="#132e65" stroke-width="1.5"></path><path d="M-62.15 653.11L103.73 411.77" stroke="#132e65" stroke-width="1.5"></path><path d="M103.73 411.77L103.73 411.77" stroke="#132e65" stroke-width="1.5"></path><path d="M103.73 411.77L211.31 401.62" stroke="#132e65" stroke-width="1.5"></path><path d="M103.73 411.77L54.08 510.13" stroke="#132e65" stroke-width="1.5"></path><path d="M103.73 411.77L248.71 541.35" stroke="#132e65" stroke-width="1.5"></path><path d="M103.73 411.77L-98.63 402.59" stroke="#132e65" stroke-width="1.5"></path><path d="M103.73 411.77L339.42 337.74" stroke="#132e65" stroke-width="1.5"></path><path d="M54.08 510.13L54.08 510.13" stroke="#132e65" stroke-width="1.5"></path><path d="M54.08 510.13L37.93 667.57" stroke="#132e65" stroke-width="1.5"></path><path d="M54.08 510.13L-98.63 402.59" stroke="#132e65" stroke-width="1.5"></path><path d="M54.08 510.13L211.31 401.62" stroke="#132e65" stroke-width="1.5"></path><path d="M37.93 667.57L37.93 667.57" stroke="#132e65" stroke-width="1.5"></path><path d="M211.31 401.62L211.31 401.62" stroke="#132e65" stroke-width="1.5"></path><path d="M211.31 401.62L339.42 337.74" stroke="#132e65" stroke-width="1.5"></path><path d="M211.31 401.62L248.71 541.35" stroke="#132e65" stroke-width="1.5"></path><path d="M248.71 541.35L248.71 541.35" stroke="#132e65" stroke-width="1.5"></path><path d="M248.71 541.35L373.39 554.27" stroke="#132e65" stroke-width="1.5"></path><path d="M248.71 541.35L238.22 676.81" stroke="#132e65" stroke-width="1.5"></path><path d="M238.22 676.81L238.22 676.81" stroke="#132e65" stroke-width="1.5"></path><path d="M238.22 676.81L349.78 658.73" stroke="#132e65" stroke-width="1.5"></path><path d="M238.22 676.81L373.39 554.27" stroke="#132e65" stroke-width="1.5"></path><path d="M238.22 676.81L37.93 667.57" stroke="#132e65" stroke-width="1.5"></path><path d="M339.42 337.74L339.42 337.74" stroke="#132e65" stroke-width="1.5"></path><path d="M339.42 337.74L522.32 381.25" stroke="#132e65" stroke-width="1.5"></path><path d="M339.42 337.74L373.39 554.27" stroke="#132e65" stroke-width="1.5"></path><path d="M339.42 337.74L248.71 541.35" stroke="#132e65" stroke-width="1.5"></path><path d="M339.42 337.74L498.37 514.83" stroke="#132e65" stroke-width="1.5"></path><path d="M373.39 554.27L373.39 554.27" stroke="#132e65" stroke-width="1.5"></path><path d="M373.39 554.27L349.78 658.73" stroke="#132e65" stroke-width="1.5"></path><path d="M349.78 658.73L349.78 658.73" stroke="#132e65" stroke-width="1.5"></path><path d="M349.78 658.73L248.71 541.35" stroke="#132e65" stroke-width="1.5"></path><path d="M349.78 658.73L509.2 705.98" stroke="#132e65" stroke-width="1.5"></path><path d="M349.78 658.73L498.37 514.83" stroke="#132e65" stroke-width="1.5"></path><path d="M522.32 381.25L522.32 381.25" stroke="#132e65" stroke-width="1.5"></path><path d="M522.32 381.25L641.95 409.58" stroke="#132e65" stroke-width="1.5"></path><path d="M498.37 514.83L498.37 514.83" stroke="#132e65" stroke-width="1.5"></path><path d="M498.37 514.83L373.39 554.27" stroke="#132e65" stroke-width="1.5"></path><path d="M498.37 514.83L522.32 381.25" stroke="#132e65" stroke-width="1.5"></path><path d="M498.37 514.83L641.95 409.58" stroke="#132e65" stroke-width="1.5"></path><path d="M498.37 514.83L509.2 705.98" stroke="#132e65" stroke-width="1.5"></path><path d="M498.37 514.83L699.39 548.44" stroke="#132e65" stroke-width="1.5"></path><path d="M509.2 705.98L509.2 705.98" stroke="#132e65" stroke-width="1.5"></path><path d="M509.2 705.98L651.27 663.86" stroke="#132e65" stroke-width="1.5"></path><path d="M641.95 409.58L641.95 409.58" stroke="#132e65" stroke-width="1.5"></path><path d="M641.95 409.58L699.39 548.44" stroke="#132e65" stroke-width="1.5"></path><path d="M641.95 409.58L840.75 366.22" stroke="#132e65" stroke-width="1.5"></path><path d="M641.95 409.58L828.52 540.14" stroke="#132e65" stroke-width="1.5"></path><path d="M699.39 548.44L699.39 548.44" stroke="#132e65" stroke-width="1.5"></path><path d="M699.39 548.44L651.27 663.86" stroke="#132e65" stroke-width="1.5"></path><path d="M699.39 548.44L828.52 540.14" stroke="#132e65" stroke-width="1.5"></path><path d="M699.39 548.44L853.65 708.98" stroke="#132e65" stroke-width="1.5"></path><path d="M651.27 663.86L651.27 663.86" stroke="#132e65" stroke-width="1.5"></path><path d="M824.81 229.17L824.81 229.17" stroke="#132e65" stroke-width="1.5"></path><path d="M824.81 229.17L840.75 366.22" stroke="#132e65" stroke-width="1.5"></path><path d="M840.75 366.22L840.75 366.22" stroke="#132e65" stroke-width="1.5"></path><path d="M840.75 366.22L987.56 395.22" stroke="#132e65" stroke-width="1.5"></path><path d="M828.52 540.14L828.52 540.14" stroke="#132e65" stroke-width="1.5"></path><path d="M828.52 540.14L989.97 513.72" stroke="#132e65" stroke-width="1.5"></path><path d="M828.52 540.14L853.65 708.98" stroke="#132e65" stroke-width="1.5"></path><path d="M853.65 708.98L853.65 708.98" stroke="#132e65" stroke-width="1.5"></path><path d="M853.65 708.98L1001.83 700.98" stroke="#132e65" stroke-width="1.5"></path><path d="M853.65 708.98L651.27 663.86" stroke="#132e65" stroke-width="1.5"></path><path d="M853.65 708.98L989.97 513.72" stroke="#132e65" stroke-width="1.5"></path><path d="M853.65 708.98L1093.22 552.69" stroke="#132e65" stroke-width="1.5"></path><path d="M975.21 -86.39L975.21 -86.39" stroke="#132e65" stroke-width="1.5"></path><path d="M975.21 -86.39L1137.23 -106.85" stroke="#132e65" stroke-width="1.5"></path><path d="M975.21 -86.39L1154.32 100.5" stroke="#132e65" stroke-width="1.5"></path><path d="M975.21 -86.39L1248.88 38.19" stroke="#132e65" stroke-width="1.5"></path><path d="M975.21 -86.39L1309.11 -109.77" stroke="#132e65" stroke-width="1.5"></path><path d="M975.21 -86.39L824.81 229.17" stroke="#132e65" stroke-width="1.5"></path><path d="M975.21 -86.39L1103.25 241.52" stroke="#132e65" stroke-width="1.5"></path><path d="M987.56 395.22L987.56 395.22" stroke="#132e65" stroke-width="1.5"></path><path d="M987.56 395.22L1088.58 355.86" stroke="#132e65" stroke-width="1.5"></path><path d="M987.56 395.22L989.97 513.72" stroke="#132e65" stroke-width="1.5"></path><path d="M987.56 395.22L1093.22 552.69" stroke="#132e65" stroke-width="1.5"></path><path d="M987.56 395.22L1103.25 241.52" stroke="#132e65" stroke-width="1.5"></path><path d="M989.97 513.72L989.97 513.72" stroke="#132e65" stroke-width="1.5"></path><path d="M989.97 513.72L1093.22 552.69" stroke="#132e65" stroke-width="1.5"></path><path d="M1001.83 700.98L1001.83 700.98" stroke="#132e65" stroke-width="1.5"></path><path d="M1001.83 700.98L1153.32 682.45" stroke="#132e65" stroke-width="1.5"></path><path d="M1137.23 -106.85L1137.23 -106.85" stroke="#132e65" stroke-width="1.5"></path><path d="M1137.23 -106.85L1309.11 -109.77" stroke="#132e65" stroke-width="1.5"></path><path d="M1137.23 -106.85L1248.88 38.19" stroke="#132e65" stroke-width="1.5"></path><path d="M1137.23 -106.85L1154.32 100.5" stroke="#132e65" stroke-width="1.5"></path><path d="M1154.32 100.5L1154.32 100.5" stroke="#132e65" stroke-width="1.5"></path><path d="M1154.32 100.5L1248.88 38.19" stroke="#132e65" stroke-width="1.5"></path><path d="M1154.32 100.5L1103.25 241.52" stroke="#132e65" stroke-width="1.5"></path><path d="M1103.25 241.52L1103.25 241.52" stroke="#132e65" stroke-width="1.5"></path><path d="M1103.25 241.52L1088.58 355.86" stroke="#132e65" stroke-width="1.5"></path><path d="M1103.25 241.52L1265.73 241.77" stroke="#132e65" stroke-width="1.5"></path><path d="M1103.25 241.52L1248.88 38.19" stroke="#132e65" stroke-width="1.5"></path><path d="M1103.25 241.52L1307.73 396.18" stroke="#132e65" stroke-width="1.5"></path><path d="M1088.58 355.86L1088.58 355.86" stroke="#132e65" stroke-width="1.5"></path><path d="M1088.58 355.86L989.97 513.72" stroke="#132e65" stroke-width="1.5"></path><path d="M1093.22 552.69L1093.22 552.69" stroke="#132e65" stroke-width="1.5"></path><path d="M1093.22 552.69L1153.32 682.45" stroke="#132e65" stroke-width="1.5"></path><path d="M1093.22 552.69L1001.83 700.98" stroke="#132e65" stroke-width="1.5"></path><path d="M1093.22 552.69L1088.58 355.86" stroke="#132e65" stroke-width="1.5"></path><path d="M1153.32 682.45L1153.32 682.45" stroke="#132e65" stroke-width="1.5"></path><path d="M1309.11 -109.77L1309.11 -109.77" stroke="#132e65" stroke-width="1.5"></path><path d="M1309.11 -109.77L1412.98 -45.73" stroke="#132e65" stroke-width="1.5"></path><path d="M1309.11 -109.77L1248.88 38.19" stroke="#132e65" stroke-width="1.5"></path><path d="M1248.88 38.19L1248.88 38.19" stroke="#132e65" stroke-width="1.5"></path><path d="M1248.88 38.19L1412.98 -45.73" stroke="#132e65" stroke-width="1.5"></path><path d="M1248.88 38.19L1432.95 67.74" stroke="#132e65" stroke-width="1.5"></path><path d="M1265.73 241.77L1265.73 241.77" stroke="#132e65" stroke-width="1.5"></path><path d="M1265.73 241.77L1412.46 236.6" stroke="#132e65" stroke-width="1.5"></path><path d="M1265.73 241.77L1307.73 396.18" stroke="#132e65" stroke-width="1.5"></path><path d="M1265.73 241.77L1154.32 100.5" stroke="#132e65" stroke-width="1.5"></path><path d="M1265.73 241.77L1401.34 370.42" stroke="#132e65" stroke-width="1.5"></path><path d="M1265.73 241.77L1248.88 38.19" stroke="#132e65" stroke-width="1.5"></path><path d="M1307.73 396.18L1307.73 396.18" stroke="#132e65" stroke-width="1.5"></path><path d="M1307.73 396.18L1401.34 370.42" stroke="#132e65" stroke-width="1.5"></path><path d="M1307.73 396.18L1438.98 506.26" stroke="#132e65" stroke-width="1.5"></path><path d="M1298.16 706.11L1298.16 706.11" stroke="#132e65" stroke-width="1.5"></path><path d="M1298.16 706.11L1418.84 653.49" stroke="#132e65" stroke-width="1.5"></path><path d="M1298.16 706.11L1153.32 682.45" stroke="#132e65" stroke-width="1.5"></path><path d="M1412.98 -45.73L1412.98 -45.73" stroke="#132e65" stroke-width="1.5"></path><path d="M1412.98 -45.73L1432.95 67.74" stroke="#132e65" stroke-width="1.5"></path><path d="M1432.95 67.74L1432.95 67.74" stroke="#132e65" stroke-width="1.5"></path><path d="M1432.95 67.74L1549 96.56" stroke="#132e65" stroke-width="1.5"></path><path d="M1412.46 236.6L1412.46 236.6" stroke="#132e65" stroke-width="1.5"></path><path d="M1412.46 236.6L1401.34 370.42" stroke="#132e65" stroke-width="1.5"></path><path d="M1412.46 236.6L1432.95 67.74" stroke="#132e65" stroke-width="1.5"></path><path d="M1412.46 236.6L1307.73 396.18" stroke="#132e65" stroke-width="1.5"></path><path d="M1401.34 370.42L1401.34 370.42" stroke="#132e65" stroke-width="1.5"></path><path d="M1401.34 370.42L1438.98 506.26" stroke="#132e65" stroke-width="1.5"></path><path d="M1438.98 506.26L1438.98 506.26" stroke="#132e65" stroke-width="1.5"></path><path d="M1438.98 506.26L1541.58 411.72" stroke="#132e65" stroke-width="1.5"></path><path d="M1438.98 506.26L1418.84 653.49" stroke="#132e65" stroke-width="1.5"></path><path d="M1438.98 506.26L1593.29 538.35" stroke="#132e65" stroke-width="1.5"></path><path d="M1438.98 506.26L1573.25 656.64" stroke="#132e65" stroke-width="1.5"></path><path d="M1418.84 653.49L1418.84 653.49" stroke="#132e65" stroke-width="1.5"></path><path d="M1418.84 653.49L1573.25 656.64" stroke="#132e65" stroke-width="1.5"></path><path d="M1552.45 -83.53L1552.45 -83.53" stroke="#132e65" stroke-width="1.5"></path><path d="M1552.45 -83.53L1412.98 -45.73" stroke="#132e65" stroke-width="1.5"></path><path d="M1552.45 -83.53L1549 96.56" stroke="#132e65" stroke-width="1.5"></path><path d="M1549 96.56L1549 96.56" stroke="#132e65" stroke-width="1.5"></path><path d="M1549 96.56L1605.55 255.74" stroke="#132e65" stroke-width="1.5"></path><path d="M1549 96.56L1412.46 236.6" stroke="#132e65" stroke-width="1.5"></path><path d="M1605.55 255.74L1605.55 255.74" stroke="#132e65" stroke-width="1.5"></path><path d="M1605.55 255.74L1541.58 411.72" stroke="#132e65" stroke-width="1.5"></path><path d="M1541.58 411.72L1541.58 411.72" stroke="#132e65" stroke-width="1.5"></path><path d="M1541.58 411.72L1593.29 538.35" stroke="#132e65" stroke-width="1.5"></path><path d="M1541.58 411.72L1401.34 370.42" stroke="#132e65" stroke-width="1.5"></path><path d="M1593.29 538.35L1593.29 538.35" stroke="#132e65" stroke-width="1.5"></path><path d="M1593.29 538.35L1573.25 656.64" stroke="#132e65" stroke-width="1.5"></path><path d="M1593.29 538.35L1418.84 653.49" stroke="#132e65" stroke-width="1.5"></path><path d="M1593.29 538.35L1401.34 370.42" stroke="#132e65" stroke-width="1.5"></path><path d="M1593.29 538.35L1605.55 255.74" stroke="#132e65" stroke-width="1.5"></path><path d="M1573.25 656.64L1573.25 656.64" stroke="#132e65" stroke-width="1.5"></path><path d="M1573.25 656.64L1541.58 411.72" stroke="#132e65" stroke-width="1.5"></path><path d="M1573.25 656.64L1298.16 706.11" stroke="#132e65" stroke-width="1.5"></path><circle r="5" cx="-98.63" cy="402.59" fill="#132e65"></circle><circle r="5" cx="-59.7" cy="531.1" fill="#132e65"></circle><circle r="5" cx="-62.15" cy="653.11" fill="#132e65"></circle><circle r="5" cx="103.73" cy="411.77" fill="#132e65"></circle><circle r="5" cx="54.08" cy="510.13" fill="#132e65"></circle><circle r="5" cx="37.93" cy="667.57" fill="#132e65"></circle><circle r="5" cx="211.31" cy="401.62" fill="#132e65"></circle><circle r="5" cx="248.71" cy="541.35" fill="#132e65"></circle><circle r="5" cx="238.22" cy="676.81" fill="#132e65"></circle><circle r="5" cx="339.42" cy="337.74" fill="#132e65"></circle><circle r="5" cx="373.39" cy="554.27" fill="#132e65"></circle><circle r="5" cx="349.78" cy="658.73" fill="#132e65"></circle><circle r="5" cx="522.32" cy="381.25" fill="#132e65"></circle><circle r="5" cx="498.37" cy="514.83" fill="#132e65"></circle><circle r="5" cx="509.2" cy="705.98" fill="#132e65"></circle><circle r="5" cx="641.95" cy="409.58" fill="#132e65"></circle><circle r="5" cx="699.39" cy="548.44" fill="#132e65"></circle><circle r="5" cx="651.27" cy="663.86" fill="#132e65"></circle><circle r="5" cx="824.81" cy="229.17" fill="#132e65"></circle><circle r="5" cx="840.75" cy="366.22" fill="#132e65"></circle><circle r="5" cx="828.52" cy="540.14" fill="#132e65"></circle><circle r="5" cx="853.65" cy="708.98" fill="#132e65"></circle><circle r="5" cx="975.21" cy="-86.39" fill="#132e65"></circle><circle r="5" cx="987.56" cy="395.22" fill="#132e65"></circle><circle r="5" cx="989.97" cy="513.72" fill="#132e65"></circle><circle r="5" cx="1001.83" cy="700.98" fill="#132e65"></circle><circle r="5" cx="1137.23" cy="-106.85" fill="#132e65"></circle><circle r="5" cx="1154.32" cy="100.5" fill="#132e65"></circle><circle r="5" cx="1103.25" cy="241.52" fill="#132e65"></circle><circle r="5" cx="1088.58" cy="355.86" fill="#132e65"></circle><circle r="5" cx="1093.22" cy="552.69" fill="#132e65"></circle><circle r="5" cx="1153.32" cy="682.45" fill="#132e65"></circle><circle r="5" cx="1309.11" cy="-109.77" fill="#132e65"></circle><circle r="5" cx="1248.88" cy="38.19" fill="#132e65"></circle><circle r="5" cx="1265.73" cy="241.77" fill="#132e65"></circle><circle r="5" cx="1307.73" cy="396.18" fill="#132e65"></circle><circle r="5" cx="1298.16" cy="706.11" fill="#132e65"></circle><circle r="5" cx="1412.98" cy="-45.73" fill="#132e65"></circle><circle r="5" cx="1432.95" cy="67.74" fill="#132e65"></circle><circle r="5" cx="1412.46" cy="236.6" fill="#132e65"></circle><circle r="5" cx="1401.34" cy="370.42" fill="#132e65"></circle><circle r="5" cx="1438.98" cy="506.26" fill="#132e65"></circle><circle r="5" cx="1418.84" cy="653.49" fill="#132e65"></circle><circle r="5" cx="1552.45" cy="-83.53" fill="#132e65"></circle><circle r="5" cx="1549" cy="96.56" fill="#132e65"></circle><circle r="5" cx="1605.55" cy="255.74" fill="#132e65"></circle><circle r="5" cx="1541.58" cy="411.72" fill="#132e65"></circle><circle r="5" cx="1593.29" cy="538.35" fill="#132e65"></circle><circle r="5" cx="1573.25" cy="656.64" fill="#132e65"></circle><path d="M-92.49 519.01L-92.49 519.01" stroke="hsl(228.5, 77.2%, 51.5%)" stroke-width="1.5"></path><path d="M-92.49 519.01L47.13 523.86" stroke="hsl(228.5, 77.2%, 51.5%)" stroke-width="1.5"></path><path d="M-92.49 519.01L-59.02 685.87" stroke="hsl(228.5, 77.2%, 51.5%)" stroke-width="1.5"></path><path d="M-92.49 519.01L105.11 692.49" stroke="hsl(228.5, 77.2%, 51.5%)" stroke-width="1.5"></path><path d="M-92.49 519.01L225.88 523.69" stroke="hsl(228.5, 77.2%, 51.5%)" stroke-width="1.5"></path><path d="M-59.02 685.87L-59.02 685.87" stroke="hsl(228.5, 77.2%, 51.5%)" stroke-width="1.5"></path><path d="M-59.02 685.87L105.11 692.49" stroke="hsl(228.5, 77.2%, 51.5%)" stroke-width="1.5"></path><path d="M-59.02 685.87L47.13 523.86" stroke="hsl(228.5, 77.2%, 51.5%)" stroke-width="1.5"></path><path d="M-59.02 685.87L220.22 708.02" stroke="hsl(228.5, 77.2%, 51.5%)" stroke-width="1.5"></path><path d="M-59.02 685.87L225.88 523.69" stroke="hsl(228.5, 77.2%, 51.5%)" stroke-width="1.5"></path><path d="M-59.02 685.87L369.92 706.14" stroke="hsl(228.5, 77.2%, 51.5%)" stroke-width="1.5"></path><path d="M225.88 523.69L225.88 523.69" stroke="hsl(228.5, 77.2%, 51.5%)" stroke-width="1.5"></path><path d="M225.88 523.69L47.13 523.86" stroke="hsl(228.5, 77.2%, 51.5%)" stroke-width="1.5"></path><path d="M225.88 523.69L405.54 546.63" stroke="hsl(228.5, 77.2%, 51.5%)" stroke-width="1.5"></path><path d="M225.88 523.69L220.22 708.02" stroke="hsl(228.5, 77.2%, 51.5%)" stroke-width="1.5"></path><path d="M225.88 523.69L105.11 692.49" stroke="hsl(228.5, 77.2%, 51.5%)" stroke-width="1.5"></path><path d="M225.88 523.69L369.92 706.14" stroke="hsl(228.5, 77.2%, 51.5%)" stroke-width="1.5"></path><path d="M827.55 561.76L827.55 561.76" stroke="hsl(228.5, 77.2%, 51.5%)" stroke-width="1.5"></path><path d="M827.55 561.76L954.86 493.35" stroke="hsl(228.5, 77.2%, 51.5%)" stroke-width="1.5"></path><path d="M827.55 561.76L965.54 669.66" stroke="hsl(228.5, 77.2%, 51.5%)" stroke-width="1.5"></path><path d="M1244.08 518.29L1244.08 518.29" stroke="hsl(228.5, 77.2%, 51.5%)" stroke-width="1.5"></path><path d="M1244.08 518.29L1146.28 521.03" stroke="hsl(228.5, 77.2%, 51.5%)" stroke-width="1.5"></path><path d="M1244.08 518.29L1300.22 381.17" stroke="hsl(228.5, 77.2%, 51.5%)" stroke-width="1.5"></path><path d="M1244.08 518.29L1392.44 539.75" stroke="hsl(228.5, 77.2%, 51.5%)" stroke-width="1.5"></path><path d="M1304 706.18L1304 706.18" stroke="hsl(228.5, 77.2%, 51.5%)" stroke-width="1.5"></path><path d="M1304 706.18L1161 671.33" stroke="hsl(228.5, 77.2%, 51.5%)" stroke-width="1.5"></path><path d="M1304 706.18L1455.97 710.03" stroke="hsl(228.5, 77.2%, 51.5%)" stroke-width="1.5"></path><path d="M1304 706.18L1392.44 539.75" stroke="hsl(228.5, 77.2%, 51.5%)" stroke-width="1.5"></path><path d="M1304 706.18L1244.08 518.29" stroke="hsl(228.5, 77.2%, 51.5%)" stroke-width="1.5"></path><path d="M1304 706.18L1146.28 521.03" stroke="hsl(228.5, 77.2%, 51.5%)" stroke-width="1.5"></path><path d="M1455.97 710.03L1455.97 710.03" stroke="hsl(228.5, 77.2%, 51.5%)" stroke-width="1.5"></path><path d="M1455.97 710.03L1569.28 688.49" stroke="hsl(228.5, 77.2%, 51.5%)" stroke-width="1.5"></path><path d="M1455.97 710.03L1392.44 539.75" stroke="hsl(228.5, 77.2%, 51.5%)" stroke-width="1.5"></path><path d="M1455.97 710.03L1541.5 533.25" stroke="hsl(228.5, 77.2%, 51.5%)" stroke-width="1.5"></path><path d="M47.13 523.86L47.13 523.86" stroke="hsl(228.5, 77.2%, 51.5%)" stroke-width="1.5"></path><path d="M47.13 523.86L105.11 692.49" stroke="hsl(228.5, 77.2%, 51.5%)" stroke-width="1.5"></path><path d="M47.13 523.86L220.22 708.02" stroke="hsl(228.5, 77.2%, 51.5%)" stroke-width="1.5"></path><path d="M47.13 523.86L405.54 546.63" stroke="hsl(228.5, 77.2%, 51.5%)" stroke-width="1.5"></path><path d="M105.11 692.49L105.11 692.49" stroke="hsl(228.5, 77.2%, 51.5%)" stroke-width="1.5"></path><path d="M105.11 692.49L220.22 708.02" stroke="hsl(228.5, 77.2%, 51.5%)" stroke-width="1.5"></path><path d="M220.22 708.02L220.22 708.02" stroke="hsl(228.5, 77.2%, 51.5%)" stroke-width="1.5"></path><path d="M220.22 708.02L369.92 706.14" stroke="hsl(228.5, 77.2%, 51.5%)" stroke-width="1.5"></path><path d="M405.54 546.63L405.54 546.63" stroke="hsl(228.5, 77.2%, 51.5%)" stroke-width="1.5"></path><path d="M405.54 546.63L521.56 522.76" stroke="hsl(228.5, 77.2%, 51.5%)" stroke-width="1.5"></path><path d="M405.54 546.63L497.83 667.7" stroke="hsl(228.5, 77.2%, 51.5%)" stroke-width="1.5"></path><path d="M405.54 546.63L369.92 706.14" stroke="hsl(228.5, 77.2%, 51.5%)" stroke-width="1.5"></path><path d="M369.92 706.14L369.92 706.14" stroke="hsl(228.5, 77.2%, 51.5%)" stroke-width="1.5"></path><path d="M369.92 706.14L497.83 667.7" stroke="hsl(228.5, 77.2%, 51.5%)" stroke-width="1.5"></path><path d="M521.56 522.76L521.56 522.76" stroke="hsl(228.5, 77.2%, 51.5%)" stroke-width="1.5"></path><path d="M497.83 667.7L497.83 667.7" stroke="hsl(228.5, 77.2%, 51.5%)" stroke-width="1.5"></path><path d="M497.83 667.7L521.56 522.76" stroke="hsl(228.5, 77.2%, 51.5%)" stroke-width="1.5"></path><path d="M497.83 667.7L647.36 710.59" stroke="hsl(228.5, 77.2%, 51.5%)" stroke-width="1.5"></path><path d="M497.83 667.7L220.22 708.02" stroke="hsl(228.5, 77.2%, 51.5%)" stroke-width="1.5"></path><path d="M497.83 667.7L225.88 523.69" stroke="hsl(228.5, 77.2%, 51.5%)" stroke-width="1.5"></path><path d="M704.24 375.59L704.24 375.59" stroke="hsl(228.5, 77.2%, 51.5%)" stroke-width="1.5"></path><path d="M704.24 375.59L806.11 352.12" stroke="hsl(228.5, 77.2%, 51.5%)" stroke-width="1.5"></path><path d="M704.24 375.59L827.55 561.76" stroke="hsl(228.5, 77.2%, 51.5%)" stroke-width="1.5"></path><path d="M647.36 710.59L647.36 710.59" stroke="hsl(228.5, 77.2%, 51.5%)" stroke-width="1.5"></path><path d="M647.36 710.59L521.56 522.76" stroke="hsl(228.5, 77.2%, 51.5%)" stroke-width="1.5"></path><path d="M647.36 710.59L827.55 561.76" stroke="hsl(228.5, 77.2%, 51.5%)" stroke-width="1.5"></path><path d="M647.36 710.59L369.92 706.14" stroke="hsl(228.5, 77.2%, 51.5%)" stroke-width="1.5"></path><path d="M806.11 352.12L806.11 352.12" stroke="hsl(228.5, 77.2%, 51.5%)" stroke-width="1.5"></path><path d="M806.11 352.12L969.6 397.7" stroke="hsl(228.5, 77.2%, 51.5%)" stroke-width="1.5"></path><path d="M806.11 352.12L954.86 493.35" stroke="hsl(228.5, 77.2%, 51.5%)" stroke-width="1.5"></path><path d="M806.11 352.12L827.55 561.76" stroke="hsl(228.5, 77.2%, 51.5%)" stroke-width="1.5"></path><path d="M806.11 352.12L1090.44 363.25" stroke="hsl(228.5, 77.2%, 51.5%)" stroke-width="1.5"></path><path d="M806.11 352.12L521.56 522.76" stroke="hsl(228.5, 77.2%, 51.5%)" stroke-width="1.5"></path><path d="M969.6 397.7L969.6 397.7" stroke="hsl(228.5, 77.2%, 51.5%)" stroke-width="1.5"></path><path d="M969.6 397.7L954.86 493.35" stroke="hsl(228.5, 77.2%, 51.5%)" stroke-width="1.5"></path><path d="M969.6 397.7L1090.44 363.25" stroke="hsl(228.5, 77.2%, 51.5%)" stroke-width="1.5"></path><path d="M954.86 493.35L954.86 493.35" stroke="hsl(228.5, 77.2%, 51.5%)" stroke-width="1.5"></path><path d="M954.86 493.35L965.54 669.66" stroke="hsl(228.5, 77.2%, 51.5%)" stroke-width="1.5"></path><path d="M954.86 493.35L1090.44 363.25" stroke="hsl(228.5, 77.2%, 51.5%)" stroke-width="1.5"></path><path d="M965.54 669.66L965.54 669.66" stroke="hsl(228.5, 77.2%, 51.5%)" stroke-width="1.5"></path><path d="M965.54 669.66L1161 671.33" stroke="hsl(228.5, 77.2%, 51.5%)" stroke-width="1.5"></path><path d="M965.54 669.66L1146.28 521.03" stroke="hsl(228.5, 77.2%, 51.5%)" stroke-width="1.5"></path><path d="M1126.13 102.48L1126.13 102.48" stroke="hsl(228.5, 77.2%, 51.5%)" stroke-width="1.5"></path><path d="M1126.13 102.48L1131.69 196.68" stroke="hsl(228.5, 77.2%, 51.5%)" stroke-width="1.5"></path><path d="M1126.13 102.48L1251.19 69.98" stroke="hsl(228.5, 77.2%, 51.5%)" stroke-width="1.5"></path><path d="M1131.69 196.68L1131.69 196.68" stroke="hsl(228.5, 77.2%, 51.5%)" stroke-width="1.5"></path><path d="M1131.69 196.68L1290.25 208.8" stroke="hsl(228.5, 77.2%, 51.5%)" stroke-width="1.5"></path><path d="M1131.69 196.68L1090.44 363.25" stroke="hsl(228.5, 77.2%, 51.5%)" stroke-width="1.5"></path><path d="M1131.69 196.68L1251.19 69.98" stroke="hsl(228.5, 77.2%, 51.5%)" stroke-width="1.5"></path><path d="M1090.44 363.25L1090.44 363.25" stroke="hsl(228.5, 77.2%, 51.5%)" stroke-width="1.5"></path><path d="M1090.44 363.25L1146.28 521.03" stroke="hsl(228.5, 77.2%, 51.5%)" stroke-width="1.5"></path><path d="M1090.44 363.25L1300.22 381.17" stroke="hsl(228.5, 77.2%, 51.5%)" stroke-width="1.5"></path><path d="M1146.28 521.03L1146.28 521.03" stroke="hsl(228.5, 77.2%, 51.5%)" stroke-width="1.5"></path><path d="M1146.28 521.03L1161 671.33" stroke="hsl(228.5, 77.2%, 51.5%)" stroke-width="1.5"></path><path d="M1161 671.33L1161 671.33" stroke="hsl(228.5, 77.2%, 51.5%)" stroke-width="1.5"></path><path d="M1309.86 -82.51L1309.86 -82.51" stroke="hsl(228.5, 77.2%, 51.5%)" stroke-width="1.5"></path><path d="M1309.86 -82.51L1387.6 -64.64" stroke="hsl(228.5, 77.2%, 51.5%)" stroke-width="1.5"></path><path d="M1309.86 -82.51L1251.19 69.98" stroke="hsl(228.5, 77.2%, 51.5%)" stroke-width="1.5"></path><path d="M1309.86 -82.51L1418 72.74" stroke="hsl(228.5, 77.2%, 51.5%)" stroke-width="1.5"></path><path d="M1251.19 69.98L1251.19 69.98" stroke="hsl(228.5, 77.2%, 51.5%)" stroke-width="1.5"></path><path d="M1251.19 69.98L1290.25 208.8" stroke="hsl(228.5, 77.2%, 51.5%)" stroke-width="1.5"></path><path d="M1251.19 69.98L1418 72.74" stroke="hsl(228.5, 77.2%, 51.5%)" stroke-width="1.5"></path><path d="M1251.19 69.98L1387.6 -64.64" stroke="hsl(228.5, 77.2%, 51.5%)" stroke-width="1.5"></path><path d="M1290.25 208.8L1290.25 208.8" stroke="hsl(228.5, 77.2%, 51.5%)" stroke-width="1.5"></path><path d="M1290.25 208.8L1388.68 243.35" stroke="hsl(228.5, 77.2%, 51.5%)" stroke-width="1.5"></path><path d="M1290.25 208.8L1300.22 381.17" stroke="hsl(228.5, 77.2%, 51.5%)" stroke-width="1.5"></path><path d="M1290.25 208.8L1418 72.74" stroke="hsl(228.5, 77.2%, 51.5%)" stroke-width="1.5"></path><path d="M1300.22 381.17L1300.22 381.17" stroke="hsl(228.5, 77.2%, 51.5%)" stroke-width="1.5"></path><path d="M1300.22 381.17L1446.84 398.23" stroke="hsl(228.5, 77.2%, 51.5%)" stroke-width="1.5"></path><path d="M1300.22 381.17L1388.68 243.35" stroke="hsl(228.5, 77.2%, 51.5%)" stroke-width="1.5"></path><path d="M1300.22 381.17L1392.44 539.75" stroke="hsl(228.5, 77.2%, 51.5%)" stroke-width="1.5"></path><path d="M1387.6 -64.64L1387.6 -64.64" stroke="hsl(228.5, 77.2%, 51.5%)" stroke-width="1.5"></path><path d="M1387.6 -64.64L1418 72.74" stroke="hsl(228.5, 77.2%, 51.5%)" stroke-width="1.5"></path><path d="M1387.6 -64.64L1609.97 -50.63" stroke="hsl(228.5, 77.2%, 51.5%)" stroke-width="1.5"></path><path d="M1418 72.74L1418 72.74" stroke="hsl(228.5, 77.2%, 51.5%)" stroke-width="1.5"></path><path d="M1418 72.74L1581.47 79.43" stroke="hsl(228.5, 77.2%, 51.5%)" stroke-width="1.5"></path><path d="M1418 72.74L1388.68 243.35" stroke="hsl(228.5, 77.2%, 51.5%)" stroke-width="1.5"></path><path d="M1388.68 243.35L1388.68 243.35" stroke="hsl(228.5, 77.2%, 51.5%)" stroke-width="1.5"></path><path d="M1388.68 243.35L1446.84 398.23" stroke="hsl(228.5, 77.2%, 51.5%)" stroke-width="1.5"></path><path d="M1388.68 243.35L1597.1 202.12" stroke="hsl(228.5, 77.2%, 51.5%)" stroke-width="1.5"></path><path d="M1446.84 398.23L1446.84 398.23" stroke="hsl(228.5, 77.2%, 51.5%)" stroke-width="1.5"></path><path d="M1446.84 398.23L1582.79 373.93" stroke="hsl(228.5, 77.2%, 51.5%)" stroke-width="1.5"></path><path d="M1446.84 398.23L1392.44 539.75" stroke="hsl(228.5, 77.2%, 51.5%)" stroke-width="1.5"></path><path d="M1446.84 398.23L1541.5 533.25" stroke="hsl(228.5, 77.2%, 51.5%)" stroke-width="1.5"></path><path d="M1446.84 398.23L1244.08 518.29" stroke="hsl(228.5, 77.2%, 51.5%)" stroke-width="1.5"></path><path d="M1392.44 539.75L1392.44 539.75" stroke="hsl(228.5, 77.2%, 51.5%)" stroke-width="1.5"></path><path d="M1392.44 539.75L1541.5 533.25" stroke="hsl(228.5, 77.2%, 51.5%)" stroke-width="1.5"></path><path d="M1609.97 -50.63L1609.97 -50.63" stroke="hsl(228.5, 77.2%, 51.5%)" stroke-width="1.5"></path><path d="M1609.97 -50.63L1581.47 79.43" stroke="hsl(228.5, 77.2%, 51.5%)" stroke-width="1.5"></path><path d="M1609.97 -50.63L1418 72.74" stroke="hsl(228.5, 77.2%, 51.5%)" stroke-width="1.5"></path><path d="M1609.97 -50.63L1597.1 202.12" stroke="hsl(228.5, 77.2%, 51.5%)" stroke-width="1.5"></path><path d="M1581.47 79.43L1581.47 79.43" stroke="hsl(228.5, 77.2%, 51.5%)" stroke-width="1.5"></path><path d="M1581.47 79.43L1597.1 202.12" stroke="hsl(228.5, 77.2%, 51.5%)" stroke-width="1.5"></path><path d="M1581.47 79.43L1387.6 -64.64" stroke="hsl(228.5, 77.2%, 51.5%)" stroke-width="1.5"></path><path d="M1597.1 202.12L1597.1 202.12" stroke="hsl(228.5, 77.2%, 51.5%)" stroke-width="1.5"></path><path d="M1597.1 202.12L1582.79 373.93" stroke="hsl(228.5, 77.2%, 51.5%)" stroke-width="1.5"></path><path d="M1582.79 373.93L1582.79 373.93" stroke="hsl(228.5, 77.2%, 51.5%)" stroke-width="1.5"></path><path d="M1582.79 373.93L1541.5 533.25" stroke="hsl(228.5, 77.2%, 51.5%)" stroke-width="1.5"></path><path d="M1582.79 373.93L1388.68 243.35" stroke="hsl(228.5, 77.2%, 51.5%)" stroke-width="1.5"></path><path d="M1582.79 373.93L1392.44 539.75" stroke="hsl(228.5, 77.2%, 51.5%)" stroke-width="1.5"></path><path d="M1541.5 533.25L1541.5 533.25" stroke="hsl(228.5, 77.2%, 51.5%)" stroke-width="1.5"></path><path d="M1541.5 533.25L1569.28 688.49" stroke="hsl(228.5, 77.2%, 51.5%)" stroke-width="1.5"></path><path d="M1569.28 688.49L1569.28 688.49" stroke="hsl(228.5, 77.2%, 51.5%)" stroke-width="1.5"></path><path d="M1569.28 688.49L1392.44 539.75" stroke="hsl(228.5, 77.2%, 51.5%)" stroke-width="1.5"></path><path d="M1569.28 688.49L1304 706.18" stroke="hsl(228.5, 77.2%, 51.5%)" stroke-width="1.5"></path><path d="M1569.28 688.49L1582.79 373.93" stroke="hsl(228.5, 77.2%, 51.5%)" stroke-width="1.5"></path><path d="M1569.28 688.49L1446.84 398.23" stroke="hsl(228.5, 77.2%, 51.5%)" stroke-width="1.5"></path><circle r="25" cx="-92.49" cy="519.01" fill="url(#SvgjsRadialGradient1051)"></circle><circle r="25" cx="-59.02" cy="685.87" fill="url(#SvgjsRadialGradient1051)"></circle><circle r="25" cx="225.88" cy="523.69" fill="url(#SvgjsRadialGradient1051)"></circle><circle r="25" cx="827.55" cy="561.76" fill="url(#SvgjsRadialGradient1051)"></circle><circle r="25" cx="1244.08" cy="518.29" fill="url(#SvgjsRadialGradient1051)"></circle><circle r="25" cx="1304" cy="706.18" fill="url(#SvgjsRadialGradient1051)"></circle><circle r="25" cx="1455.97" cy="710.03" fill="url(#SvgjsRadialGradient1051)"></circle><circle r="5" cx="47.13" cy="523.86" fill="#8b9ad9"></circle><circle r="5" cx="105.11" cy="692.49" fill="#8b9ad9"></circle><circle r="5" cx="220.22" cy="708.02" fill="#8b9ad9"></circle><circle r="5" cx="405.54" cy="546.63" fill="#8b9ad9"></circle><circle r="5" cx="369.92" cy="706.14" fill="#8b9ad9"></circle><circle r="5" cx="521.56" cy="522.76" fill="#8b9ad9"></circle><circle r="5" cx="497.83" cy="667.7" fill="#8b9ad9"></circle><circle r="5" cx="704.24" cy="375.59" fill="#8b9ad9"></circle><circle r="5" cx="647.36" cy="710.59" fill="#8b9ad9"></circle><circle r="5" cx="806.11" cy="352.12" fill="#8b9ad9"></circle><circle r="5" cx="969.6" cy="397.7" fill="#8b9ad9"></circle><circle r="5" cx="954.86" cy="493.35" fill="#8b9ad9"></circle><circle r="5" cx="965.54" cy="669.66" fill="#8b9ad9"></circle><circle r="5" cx="1126.13" cy="102.48" fill="#8b9ad9"></circle><circle r="5" cx="1131.69" cy="196.68" fill="#8b9ad9"></circle><circle r="5" cx="1090.44" cy="363.25" fill="#8b9ad9"></circle><circle r="5" cx="1146.28" cy="521.03" fill="#8b9ad9"></circle><circle r="5" cx="1161" cy="671.33" fill="#8b9ad9"></circle><circle r="5" cx="1309.86" cy="-82.51" fill="#8b9ad9"></circle><circle r="5" cx="1251.19" cy="69.98" fill="#8b9ad9"></circle><circle r="5" cx="1290.25" cy="208.8" fill="#8b9ad9"></circle><circle r="5" cx="1300.22" cy="381.17" fill="#8b9ad9"></circle><circle r="5" cx="1387.6" cy="-64.64" fill="#8b9ad9"></circle><circle r="5" cx="1418" cy="72.74" fill="#8b9ad9"></circle><circle r="5" cx="1388.68" cy="243.35" fill="#8b9ad9"></circle><circle r="5" cx="1446.84" cy="398.23" fill="#8b9ad9"></circle><circle r="5" cx="1392.44" cy="539.75" fill="#8b9ad9"></circle><circle r="5" cx="1609.97" cy="-50.63" fill="#8b9ad9"></circle><circle r="5" cx="1581.47" cy="79.43" fill="#8b9ad9"></circle><circle r="5" cx="1597.1" cy="202.12" fill="#8b9ad9"></circle><circle r="5" cx="1582.79" cy="373.93" fill="#8b9ad9"></circle><circle r="5" cx="1541.5" cy="533.25" fill="#8b9ad9"></circle><circle r="5" cx="1569.28" cy="688.49" fill="#8b9ad9"></circle></g><defs><mask id="SvgjsMask1049"><rect width="1440" height="560" fill="#ffffff"></rect></mask><linearGradient x1="15.28%" y1="-39.29%" x2="84.72%" y2="139.29%" gradientUnits="userSpaceOnUse" id="SvgjsLinearGradient1050"><stop stop-color="#0e2a47" offset="0"></stop><stop stop-color="rgba(73, 0, 158, 1)" offset="1"></stop></linearGradient><radialGradient id="SvgjsRadialGradient1051"><stop stop-color="#ffffff" offset="0.1"></stop><stop stop-color="#1735b3" offset="0.2"></stop><stop stop-color="rgba(23, 53, 179, 0)" offset="1"></stop></radialGradient></defs></svg>