<svg xmlns="http://www.w3.org/2000/svg" version="1.1" xmlns:xlink="http://www.w3.org/1999/xlink" xmlns:svgjs="http://svgjs.com/svgjs" width="1440" height="560" preserveAspectRatio="none" viewBox="0 0 1440 560"><g mask="url(&quot;#SvgjsMask1309&quot;)" fill="none"><rect width="1440" height="560" x="0" y="0" fill="url(#SvgjsLinearGradient1310)"></rect><path d="M -163.9971392152794,136 C -68,190.6 124,387.2 316.0028607847206,409 C 508,430.8 604,248.4 796.0028607847206,245 C 988,241.6 1084,412 1276.0028607847207,392 C 1468,372 1723.2,150.4 1756.0028607847207,145 C 1788.8,139.6 1503.2,321 1440,365" stroke="rgba(51, 121, 194, 0.58)" stroke-width="2"></path><path d="M -675.1359789830501,462 C -579.14,415.8 -387.14,249 -195.13597898305017,231 C -3.14,213 92.86,364 284.86402101694983,372 C 476.86,380 572.86,256.8 764.8640210169499,271 C 956.86,285.2 1109.84,449.8 1244.86402101695,443 C 1379.89,436.2 1400.97,278.2 1440,237" stroke="rgba(51, 121, 194, 0.58)" stroke-width="2"></path><path d="M -6.705645305354665,361 C 89.29,339.8 281.29,264.8 473.29435469464534,255 C 665.29,245.2 761.29,334.8 953.2943546946453,312 C 1145.29,289.2 1241.29,106.8 1433.2943546946453,141 C 1625.29,175.2 1911.95,484.6 1913.2943546946453,483 C 1914.64,481.4 1534.66,203 1440,133" stroke="rgba(51, 121, 194, 0.58)" stroke-width="2"></path><path d="M -741.5111725354852,105 C -645.51,141.2 -453.51,294.6 -261.51117253548523,286 C -69.51,277.4 26.49,30.2 218.48882746451477,62 C 410.49,93.8 506.49,426.2 698.4888274645148,445 C 890.49,463.8 1030.19,164.6 1178.4888274645148,156 C 1326.79,147.4 1387.7,352.8 1440,402" stroke="rgba(51, 121, 194, 0.58)" stroke-width="2"></path><path d="M -4.560814169806463,394 C 91.44,335.8 283.44,111.4 475.43918583019354,103 C 667.44,94.6 763.44,348.8 955.4391858301935,352 C 1147.44,355.2 1243.44,88.6 1435.4391858301935,119 C 1627.44,149.4 1914.53,484.8 1915.4391858301935,504 C 1916.35,523.2 1535.09,272.8 1440,215" stroke="rgba(51, 121, 194, 0.58)" stroke-width="2"></path><path d="M -869.6197388217631,292 C -773.62,284.4 -581.62,243 -389.61973882176306,254 C -197.62,265 -101.62,378 90.38026117823694,347 C 282.38,316 378.38,85.8 570.3802611782369,99 C 762.38,112.2 876.46,382.6 1050.3802611782369,413 C 1224.3,443.4 1362.08,283.4 1440,251" stroke="rgba(51, 121, 194, 0.58)" stroke-width="2"></path><path d="M -467.66638725970404,380 C -371.67,341.6 -179.67,180.6 12.333612740295976,188 C 204.33,195.4 300.33,430.2 492.33361274029596,417 C 684.33,403.8 780.33,133.6 972.333612740296,122 C 1164.33,110.4 1358.8,370 1452.333612740296,359 C 1545.87,348 1442.47,125.4 1440,67" stroke="rgba(51, 121, 194, 0.58)" stroke-width="2"></path></g><defs><mask id="SvgjsMask1309"><rect width="1440" height="560" fill="#ffffff"></rect></mask><linearGradient x1="15.28%" y1="-39.29%" x2="84.72%" y2="139.29%" gradientUnits="userSpaceOnUse" id="SvgjsLinearGradient1310"><stop stop-color="#0e2a47" offset="0"></stop><stop stop-color="rgba(0, 9, 158, 1)" offset="1"></stop></linearGradient></defs></svg>